<svg width="132" height="40" viewBox="0 0 132 40" fill="none" xmlns="http://www.w3.org/2000/svg">
<path d="M51.4231 26.7259H44.4291V34.5H40.0713V14.594H52.7412V18.629H44.4291V22.7985H51.4231V26.7259ZM52.3654 27.0218V14.594H56.7232V26.7259C56.7232 29.2276 58.0951 30.5995 60.543 30.5995C63.0178 30.5995 64.4166 29.1738 64.4166 26.7259V14.594H68.7744V27.0218C68.7744 31.7562 65.5464 34.8228 60.543 34.8228C55.5665 34.8228 52.3654 31.7831 52.3654 27.0218ZM82.195 34.5H69.552V14.594H82.195V18.629H73.9098V22.5295H81.2535V26.3493H73.9098V30.465H82.195V34.5ZM86.8901 14.594V30.465H94.7449V34.5H82.5323V14.594H86.8901ZM101.914 34.8228C95.9422 34.8228 92.2031 30.8685 92.2031 24.5739C92.2031 18.36 96.1574 14.2712 102.102 14.2712C107.079 14.2712 110.656 17.1226 111.275 21.588H106.675C106.083 19.5974 104.389 18.4676 101.995 18.4676C98.7667 18.4676 96.803 20.7541 96.803 24.547C96.803 28.2861 98.7936 30.6264 101.995 30.6264C104.443 30.6264 106.245 29.4159 106.783 27.4522H111.302C110.603 31.8907 106.89 34.8228 101.914 34.8228ZM129.388 24.5201C129.388 30.5995 125.38 34.8228 119.597 34.8228C113.84 34.8228 109.886 30.6264 109.886 24.547C109.886 18.4676 113.867 14.2443 119.623 14.2443C125.407 14.2443 129.388 18.4407 129.388 24.5201ZM124.788 24.5201C124.788 20.7272 122.851 18.4407 119.65 18.4407C116.422 18.4407 114.486 20.7272 114.486 24.5201C114.486 28.3399 116.422 30.6264 119.65 30.6264C122.851 30.6264 124.788 28.2861 124.788 24.5201Z" fill="#FAFAFA"/>
<path fill-rule="evenodd" clip-rule="evenodd" d="M31.149 10.046L33.2868 14.0625C33.5948 14.6411 33.7558 15.2865 33.7558 15.9419V35.9912C33.7558 38.2004 31.965 39.9912 29.7558 39.9912H15.4161C13.207 39.9912 11.4161 38.2004 11.4161 35.9912V15.2708C11.4161 15.0613 11.4993 14.8605 11.6474 14.7123C11.9559 14.4039 11.9559 13.9039 11.6474 13.5954L11.1905 13.1384C10.8166 12.7646 10.8166 12.1584 11.1905 11.7845C11.5643 11.4106 11.5643 10.8045 11.1905 10.4306L5.09208 4.33221C4.79686 4.03699 4.45724 3.78981 4.08556 3.59965L0.50705 1.76878C0.0975307 1.55926 -0.0975569 1.08204 0.0479095 0.645641C0.216911 0.138635 0.777134 -0.122305 1.27398 0.0745603L5.62969 1.80041C6.09829 1.98608 6.52757 2.25864 6.89494 2.60374L13.0754 8.4096C13.4711 8.78134 14.0905 8.77167 14.4744 8.38775C14.8486 8.01354 15.4489 7.99355 15.8472 8.34204L16.024 8.49674C16.5363 8.94508 17.3126 8.90369 17.7744 8.4034L17.8748 8.29463C18.1446 8.00233 18.5255 7.83777 18.9232 7.84159L27.6565 7.92557C29.121 7.93965 30.4608 8.75307 31.149 10.046ZM21.9091 9.75473C20.8497 9.75473 19.991 10.6135 19.991 11.6728C19.991 12.7321 20.8497 13.5908 21.9091 13.5908H25.9708C27.0301 13.5908 27.8889 12.7321 27.8889 11.6728C27.8889 10.6135 27.0301 9.75473 25.9708 9.75473H21.9091ZM16.1017 18.1568C15.8088 17.8639 15.3339 17.8639 15.041 18.1568C14.7481 18.4497 14.7481 18.9246 15.041 19.2175L19.8279 24.0043C20.1208 24.2972 20.5956 24.2972 20.8885 24.0043C21.1814 23.7114 21.1814 23.2366 20.8885 22.9437L16.1017 18.1568ZM15.041 34.2983C15.3339 34.5912 15.8088 34.5912 16.1017 34.2983L20.8885 29.5115C21.1814 29.2186 21.1814 28.7437 20.8885 28.4508C20.5956 28.1579 20.1208 28.1579 19.8279 28.4508L15.041 33.2377C14.7481 33.5306 14.7481 34.0054 15.041 34.2983ZM30.1985 34.2983C30.4914 34.5912 30.9663 34.5912 31.2592 34.2983C31.5521 34.0054 31.5521 33.5306 31.2592 33.2377L26.4724 28.4508C26.1795 28.1579 25.7046 28.1579 25.4117 28.4508C25.1188 28.7437 25.1188 29.2186 25.4117 29.5115L30.1985 34.2983ZM31.2592 18.1568C30.9663 17.8639 30.4914 17.8639 30.1985 18.1568L25.4117 22.9437C25.1188 23.2366 25.1188 23.7114 25.4117 24.0043C25.7046 24.2972 26.1795 24.2972 26.4724 24.0043L31.2592 19.2175C31.5521 18.9246 31.5521 18.4497 31.2592 18.1568Z" fill="#FAFAFA"/>
</svg>
